<mxfile host="app.diagrams.net" modified="2024-06-21T02:57:28.176Z" agent="Mozilla/5.0 (Windows NT 10.0; Win64; x64) AppleWebKit/537.36 (KHTML, like Gecko) Chrome/126.0.0.0 Safari/537.36" etag="RVgqOKYvWAe0lB2Ng1iL" version="24.5.5" type="github" pages="2">
  <diagram name="FAT12文件系统" id="glHT4x5Lblkt-VLPU1X4">
    <mxGraphModel dx="1389" dy="914" grid="0" gridSize="10" guides="1" tooltips="1" connect="1" arrows="1" fold="1" page="0" pageScale="1" pageWidth="827" pageHeight="1169" math="0" shadow="0">
      <root>
        <mxCell id="0" />
        <mxCell id="1" parent="0" />
        <mxCell id="-z3rpnG8zkKCw7psyNjV-7" value="" style="group" vertex="1" connectable="0" parent="1">
          <mxGeometry x="23" y="-32" width="120" height="324" as="geometry" />
        </mxCell>
        <mxCell id="-z3rpnG8zkKCw7psyNjV-1" value="数据区" style="rounded=0;whiteSpace=wrap;html=1;" vertex="1" parent="-z3rpnG8zkKCw7psyNjV-7">
          <mxGeometry width="120" height="104" as="geometry" />
        </mxCell>
        <mxCell id="-z3rpnG8zkKCw7psyNjV-2" value="根目录区" style="rounded=0;whiteSpace=wrap;html=1;" vertex="1" parent="-z3rpnG8zkKCw7psyNjV-7">
          <mxGeometry y="104" width="120" height="60" as="geometry" />
        </mxCell>
        <mxCell id="-z3rpnG8zkKCw7psyNjV-3" value="FAT2" style="rounded=0;whiteSpace=wrap;html=1;" vertex="1" parent="-z3rpnG8zkKCw7psyNjV-7">
          <mxGeometry y="164" width="120" height="60" as="geometry" />
        </mxCell>
        <mxCell id="-z3rpnG8zkKCw7psyNjV-4" value="FAT1" style="rounded=0;whiteSpace=wrap;html=1;" vertex="1" parent="-z3rpnG8zkKCw7psyNjV-7">
          <mxGeometry y="224" width="120" height="54" as="geometry" />
        </mxCell>
        <mxCell id="-z3rpnG8zkKCw7psyNjV-5" value="引导扇区" style="rounded=0;whiteSpace=wrap;html=1;" vertex="1" parent="-z3rpnG8zkKCw7psyNjV-7">
          <mxGeometry y="278" width="120" height="46" as="geometry" />
        </mxCell>
        <mxCell id="-z3rpnG8zkKCw7psyNjV-8" value="FAT12文件系统结构" style="text;html=1;align=center;verticalAlign=middle;whiteSpace=wrap;rounded=0;" vertex="1" parent="1">
          <mxGeometry x="-83" y="119" width="91" height="30" as="geometry" />
        </mxCell>
      </root>
    </mxGraphModel>
  </diagram>
  <diagram id="olh57H3M7qm08v8Nd5pc" name="分页">
    <mxGraphModel dx="1195" dy="621" grid="0" gridSize="10" guides="1" tooltips="1" connect="1" arrows="1" fold="1" page="0" pageScale="1" pageWidth="827" pageHeight="1169" math="0" shadow="0">
      <root>
        <mxCell id="0" />
        <mxCell id="1" parent="0" />
        <mxCell id="eC0Ar2EkRtqq3bm4lySw-1" value="" style="rounded=0;whiteSpace=wrap;html=1;" vertex="1" parent="1">
          <mxGeometry x="228" y="402" width="186" height="60" as="geometry" />
        </mxCell>
        <mxCell id="eC0Ar2EkRtqq3bm4lySw-3" value="" style="rounded=0;whiteSpace=wrap;html=1;" vertex="1" parent="1">
          <mxGeometry x="414" y="402" width="120" height="60" as="geometry" />
        </mxCell>
        <mxCell id="eC0Ar2EkRtqq3bm4lySw-4" value="一级分页" style="text;html=1;align=center;verticalAlign=middle;whiteSpace=wrap;rounded=0;" vertex="1" parent="1">
          <mxGeometry x="228" y="320" width="60" height="30" as="geometry" />
        </mxCell>
        <mxCell id="eC0Ar2EkRtqq3bm4lySw-5" value="31" style="text;html=1;align=center;verticalAlign=middle;whiteSpace=wrap;rounded=0;" vertex="1" parent="1">
          <mxGeometry x="205" y="372" width="60" height="30" as="geometry" />
        </mxCell>
        <mxCell id="eC0Ar2EkRtqq3bm4lySw-6" value="11" style="text;html=1;align=center;verticalAlign=middle;whiteSpace=wrap;rounded=0;" vertex="1" parent="1">
          <mxGeometry x="393" y="375" width="60" height="30" as="geometry" />
        </mxCell>
        <mxCell id="eC0Ar2EkRtqq3bm4lySw-7" value="12" style="text;html=1;align=center;verticalAlign=middle;whiteSpace=wrap;rounded=0;" vertex="1" parent="1">
          <mxGeometry x="374" y="375" width="60" height="30" as="geometry" />
        </mxCell>
        <mxCell id="eC0Ar2EkRtqq3bm4lySw-8" value="0" style="text;html=1;align=center;verticalAlign=middle;whiteSpace=wrap;rounded=0;" vertex="1" parent="1">
          <mxGeometry x="501" y="375" width="60" height="30" as="geometry" />
        </mxCell>
        <mxCell id="eC0Ar2EkRtqq3bm4lySw-9" value="31~12：页表项，可表示1048576个页表" style="text;html=1;align=center;verticalAlign=middle;whiteSpace=wrap;rounded=0;" vertex="1" parent="1">
          <mxGeometry x="228" y="480" width="291" height="30" as="geometry" />
        </mxCell>
        <mxCell id="eC0Ar2EkRtqq3bm4lySw-10" value="11~0：页表偏移地址" style="text;html=1;align=center;verticalAlign=middle;whiteSpace=wrap;rounded=0;" vertex="1" parent="1">
          <mxGeometry x="176" y="500" width="291" height="30" as="geometry" />
        </mxCell>
      </root>
    </mxGraphModel>
  </diagram>
</mxfile>
